<svg xmlns="http://www.w3.org/2000/svg" viewBox="0 0 32 32" width="32" height="32">
  <defs>
    <!-- クッキリしたシアンブルー背景 -->
    <linearGradient id="cyanBgGradient" x1="0%" y1="0%" x2="100%" y2="100%">
      <stop offset="0%" style="stop-color:#2563eb;stop-opacity:1" />
      <stop offset="100%" style="stop-color:#06b6d4;stop-opacity:1" />
    </linearGradient>
    
    <!-- ソフトなシャドウ -->
    <filter id="softShadow" x="-20%" y="-20%" width="140%" height="140%">
      <feDropShadow dx="1" dy="1" stdDeviation="1" flood-opacity="0.2"/>
    </filter>
    
    <!-- グロー効果 -->
    <filter id="glow" x="-30%" y="-30%" width="160%" height="160%">
      <feGaussianBlur stdDeviation="0.8" result="coloredBlur"/>
      <feMerge> 
        <feMergeNode in="coloredBlur"/>
        <feMergeNode in="SourceGraphic"/>
      </feMerge>
    </filter>
  </defs>
  
  <!-- 背景 -->
  <rect width="32" height="32" rx="6" ry="6" fill="url(#cyanBgGradient)"/>
  
  <!-- 角の位置検出パターン（白色） -->
  <!-- 左上 -->
  <rect x="3" y="3" width="11" height="11" rx="3" ry="3" fill="#ffffff" filter="url(#softShadow)"/>
  <rect x="4.5" y="4.5" width="8" height="8" rx="2.5" ry="2.5" fill="url(#cyanBgGradient)"/>
  <rect x="7.5" y="7.5" width="2" height="2" rx="1" ry="1" fill="#ffffff"/>
  
  <!-- 右上 -->
  <rect x="18" y="3" width="11" height="11" rx="3" ry="3" fill="#ffffff" filter="url(#softShadow)"/>
  <rect x="19.5" y="4.5" width="8" height="8" rx="2.5" ry="2.5" fill="url(#cyanBgGradient)"/>
  <rect x="22.5" y="7.5" width="2" height="2" rx="1" ry="1" fill="#ffffff"/>
  
  <!-- 左下 -->
  <rect x="3" y="18" width="11" height="11" rx="3" ry="3" fill="#ffffff" filter="url(#softShadow)"/>
  <rect x="4.5" y="19.5" width="8" height="8" rx="2.5" ry="2.5" fill="url(#cyanBgGradient)"/>
  <rect x="7.5" y="22.5" width="2" height="2" rx="1" ry="1" fill="#ffffff"/>
  
  <!-- 右下の装飾模様（白色） -->
  <!-- 格子状のパターン（丸み追加） -->
  <rect x="19" y="19" width="1.8" height="1.8" rx="0.8" fill="#ffffff"/>
  <rect x="21.5" y="19" width="1.8" height="1.8" rx="0.8" fill="#ffffff"/>
  <rect x="24" y="19" width="1.8" height="1.8" rx="0.8" fill="#ffffff"/>
  <rect x="26.5" y="19" width="1.8" height="1.8" rx="0.8" fill="#ffffff"/>
  
  <rect x="19" y="21.5" width="1.8" height="1.8" rx="0.8" fill="#ffffff"/>
  <rect x="24" y="21.5" width="1.8" height="1.8" rx="0.8" fill="#ffffff"/>
  <rect x="26.5" y="21.5" width="1.8" height="1.8" rx="0.8" fill="#ffffff"/>
  
  <rect x="19" y="24" width="1.8" height="1.8" rx="0.8" fill="#ffffff"/>
  <rect x="21.5" y="24" width="1.8" height="1.8" rx="0.8" fill="#ffffff"/>
  <rect x="26.5" y="24" width="1.8" height="1.8" rx="0.8" fill="#ffffff"/>
  
  <rect x="19" y="26.5" width="1.8" height="1.8" rx="0.8" fill="#ffffff"/>
  <rect x="21.5" y="26.5" width="1.8" height="1.8" rx="0.8" fill="#ffffff"/>
  <rect x="24" y="26.5" width="1.8" height="1.8" rx="0.8" fill="#ffffff"/>
  <rect x="26.5" y="26.5" width="1.8" height="1.8" rx="0.8" fill="#ffffff"/>
  
  <!-- 中央の装飾パターン -->
  <rect x="13" y="13" width="6" height="6" rx="2" ry="2" fill="#ffffff" filter="url(#glow)"/>
  <rect x="14.5" y="14.5" width="3" height="3" rx="1.5" ry="1.5" fill="url(#cyanBgGradient)"/>
  
  <!-- 上部の装飾 -->
  <rect x="15" y="3" width="2" height="2" rx="0.8" fill="#ffffff"/>
  
  <!-- 右側の装飾 -->
  <rect x="27" y="15" width="2" height="2" rx="0.8" fill="#ffffff"/>
  
  <!-- 下部の装飾 -->
  <rect x="15" y="27" width="2" height="2" rx="0.8" fill="#ffffff"/>
  
  <!-- 左側の装飾 -->
  <rect x="3" y="15" width="2" height="2" rx="0.8" fill="#ffffff"/>
  
  <!-- 追加の装飾要素 -->
  <circle cx="16.5" cy="20.5" r="0.8" fill="#ffffff"/>
  <circle cx="15" cy="22.5" r="0.6" fill="#ffffff"/>
  <circle cx="18" cy="22.5" r="0.6" fill="#ffffff"/>
</svg>